<svg id="Capa_1" enable-background="new 0 0 509.931 509.931" viewBox="0 0 509.931 509.931" xmlns="http://www.w3.org/2000/svg"><g><g><path d="m120.459 122.743c-89.498 91.044-123.38 215.983-102.015 332.696 3.71 20.267 19.801 36.085 40.129 39.447 117.062 19.363 241.402-16.654 330.9-107.698s123.38-215.983 102.015-332.696c-3.71-20.267-19.801-36.085-40.129-39.447-117.062-19.363-241.402 16.654-330.9 107.698z" fill="#fd7da0"/><path d="m215.916 168.831c0-47.142 11.225-91.657 31.129-131.04-46.195 18.804-89.4 47.123-126.586 84.952-89.498 91.044-123.38 215.983-102.015 332.696 3.71 20.267 19.801 36.085 40.129 39.447 103.027 17.042 211.687-8.822 297.275-77.333-83.898-51.043-139.932-143.338-139.932-248.722z" fill="#db4b86"/><path d="m475.082 251.622c11.573-31.908 18.694-65.055 21.378-98.485l-143.816-141.374c-33.379 3.256-66.399 10.943-98.104 23.061z" fill="#d2dcfd"/><path d="m255.393 475.107c-31.705 12.118-64.726 19.805-98.105 23.061l-143.816-141.374c2.684-33.43 9.804-66.577 21.378-98.485z" fill="#93b2f4"/></g><g fill="#052a75"><path d="m501.324 52.691c-4.462-24.374-23.885-43.468-48.333-47.513-60.081-9.935-122.471-5.519-180.429 12.777-59.872 18.901-114.934 52.712-159.234 97.778-44.3 45.065-77.164 100.698-95.036 160.886-17.302 58.261-20.65 120.719-9.684 180.621 4.462 24.374 23.886 43.468 48.333 47.512 20.92 3.46 42.112 5.181 63.308 5.18 39.676-.001 79.345-6.03 117.121-17.955 59.872-18.901 114.934-52.712 159.234-97.778 44.3-45.065 77.164-100.698 95.036-160.886 17.301-58.261 20.65-120.719 9.684-180.622zm-28.856 174.928c-16.945 57.063-48.11 109.817-90.126 152.56-42.016 42.741-94.229 74.806-150.993 92.726-54.97 17.353-114.151 21.543-171.144 12.115-16.147-2.671-28.977-15.282-31.924-31.381-10.402-56.822-7.226-116.066 9.184-171.326 16.945-57.063 48.11-109.817 90.126-152.559 0 0 0 0 0-.001 42.016-42.741 94.228-74.806 150.993-92.726 35.833-11.313 73.451-17.03 111.089-17.03 20.102 0 40.213 1.632 60.055 4.914 16.148 2.672 28.977 15.283 31.924 31.382 10.401 56.822 7.226 116.066-9.184 171.326z"/><path d="m331.666 176.941c-3.938-3.872-10.269-3.816-14.142.12l-15.765 16.037-13.152-12.929c-3.938-3.87-10.269-3.816-14.142.122-3.872 3.938-3.817 10.27.121 14.142l13.152 12.928-17.312 17.611-13.152-12.929c-3.938-3.87-10.269-3.815-14.142.121-3.872 3.939-3.817 10.271.121 14.143l13.152 12.928-17.312 17.611-13.152-12.929c-3.938-3.87-10.269-3.816-14.142.122-3.872 3.938-3.817 10.27.121 14.142l13.152 12.929-17.312 17.611-13.152-12.929c-3.938-3.871-10.269-3.814-14.142.121-3.872 3.939-3.817 10.271.121 14.143l13.152 12.929-15.765 16.037c-3.872 3.938-3.817 10.27.121 14.141 1.947 1.915 4.479 2.869 7.01 2.869 2.587 0 5.174-.999 7.132-2.989l15.765-16.037 13.152 12.929c1.947 1.914 4.479 2.868 7.01 2.868 2.587 0 5.174-.999 7.132-2.99 3.872-3.938 3.817-10.27-.121-14.142l-13.152-12.928 17.312-17.611 13.152 12.929c1.947 1.914 4.479 2.868 7.01 2.868 2.587 0 5.174-.999 7.132-2.989 3.872-3.939 3.817-10.271-.121-14.143l-13.152-12.928 17.312-17.611 13.152 12.929c1.947 1.914 4.479 2.868 7.01 2.868 2.587 0 5.174-.999 7.132-2.99 3.872-3.938 3.817-10.27-.121-14.142l-13.152-12.929 17.312-17.611 13.152 12.929c1.947 1.914 4.479 2.868 7.01 2.868 2.587 0 5.174-.999 7.132-2.989 3.872-3.939 3.817-10.271-.121-14.143l-13.152-12.929 15.765-16.037c3.872-3.939 3.818-10.27-.121-14.141z"/></g></g><g/><g/><g/><g/><g/><g/><g/><g/><g/><g/><g/><g/><g/><g/><g/></svg>