<svg id="Capa_1" enable-background="new 0 0 510 510" viewBox="0 0 510 510" xmlns="http://www.w3.org/2000/svg"><g><g><path d="m10 59.981h396v360.001h-396z" fill="#fff"/><path d="m134.857 260.978c0-76.11 26.537-146.011 70.839-200.997h-195.696v360.001h167.006c-26.816-46.864-42.149-101.142-42.149-159.004z" fill="#d2dcfd"/><path d="m10 59.981v88l101.531-19.294 43.832 19.294h250.637v-88z" fill="#bc9af4"/><path d="m205.696 59.981h-195.696v88h145.363c12.098-32.099 29.185-61.752 50.333-88z" fill="#6864f7"/><path d="m55 192.977h68.001v68.001h-68.001z" fill="#fd8f01"/><path d="m173.999 192.977h68.001v68.001h-68.001z" fill="#fdcb50"/><path d="m292.999 192.977h68.001v68.001h-68.001z" fill="#fdcb50"/><path d="m55 305.974h68.001v68.001h-68.001z" fill="#fd8f01"/><path d="m173.999 305.974h68.001v68.001h-68.001z" fill="#fdcb50"/><path d="m292.999 305.974h68.001v68.001h-68.001z" fill="#fdcb50"/><g><path d="m431 472.019c-13.807 0-25-11.193-25-25v-98c0-13.807 11.193-25 25-25 13.807 0 25 11.193 25 25v98c0 13.807-11.193 25-25 25z" fill="#67ccd1"/><path d="m478 447.038c-12.15 0-22-9.85-22-22v-54.038c0-12.15 9.85-22 22-22 12.15 0 22 9.85 22 22v54.038c0 12.15-9.85 22-22 22z" fill="#67ccd1"/><path d="m292.998 374.02h113.002v48h-113.002z" fill="#93b2f4" transform="matrix(-1 0 0 -1 698.999 796.041)"/><g fill="#67ccd1"><path d="m267.999 472.019c13.807 0 25-11.193 25-25v-98c0-13.807-11.193-25-25-25-13.807 0-25 11.193-25 25v98c0 13.807 11.193 25 25 25z"/><path d="m220.999 447.038c12.15 0 22-9.85 22-22v-54.038c0-12.15-9.85-22-22-22-12.15 0-22 9.85-22 22v54.038c0 12.15 9.85 22 22 22z"/></g></g></g><path d="m478 339c-4.543 0-8.864.958-12.782 2.672-3.386-15.783-17.439-27.653-34.218-27.653-5.365 0-10.451 1.217-15 3.384v-257.422c0-5.523-4.477-10-10-10h-64v-12c0-5.523-4.477-10-10-10s-10 4.477-10 10v12h-42v-12c0-5.523-4.477-10-10-10s-10 4.477-10 10v12h-42v-12c0-5.523-4.477-10-10-10s-10 4.477-10 10v12h-42v-12c0-5.523-4.477-10-10-10s-10 4.477-10 10v12h-42v-12c0-5.523-4.477-10-10-10s-10 4.477-10 10v12h-64c-5.523 0-10 4.477-10 10v360.001c0 5.523 4.477 10 10 10h179.382c2.384 15.306 15.653 27.056 31.617 27.056 4.543 0 8.864-.958 12.782-2.672 3.386 15.782 17.439 27.653 34.218 27.653 19.299 0 35-15.701 35-35v-14.999h93.001v14.999c0 19.299 15.701 35 35 35 16.779 0 30.832-11.87 34.218-27.653 3.918 1.714 8.239 2.672 12.782 2.672 17.645 0 32-14.355 32-32v-54.038c0-17.645-14.355-32-32-32zm-404-269.019v12c0 5.523 4.477 10 10 10s10-4.477 10-10v-12h42v12c0 5.523 4.477 10 10 10s10-4.477 10-10v-12h42v12c0 5.523 4.477 10 10 10s10-4.477 10-10v-12h42v12c0 5.523 4.477 10 10 10s10-4.477 10-10v-12h42v12c0 5.523 4.477 10 10 10s10-4.477 10-10v-12h54v68h-376v-68zm158.999 355.057c0 6.617-5.383 12-12 12s-12-5.383-12-12v-54.038c0-6.617 5.383-12 12-12s12 5.383 12 12zm50 21.981c0 8.271-6.729 15-15 15s-15-6.729-15-15v-98c0-8.271 6.729-15 15-15s15 6.729 15 15zm113.001-34.998h-93.001v-28h93.001zm0-48h-93.001v-15.001c0-19.299-15.701-35-35-35-16.779 0-30.832 11.871-34.218 27.653-3.918-1.714-8.239-2.672-12.782-2.672-17.645 0-32 14.355-32 32v38.981h-168.999v-252.001h376v191.038zm50 82.998c0 8.271-6.729 15-15 15s-15-6.729-15-15v-98c0-8.271 6.729-15 15-15s15 6.729 15 15zm44-21.981c0 6.617-5.383 12-12 12s-12-5.383-12-12v-54.038c0-6.617 5.383-12 12-12s12 5.383 12 12z" fill="#052a75"/></g><g/><g/><g/><g/><g/><g/><g/><g/><g/><g/><g/><g/><g/><g/><g/></svg>