<svg id="Capa_1" enable-background="new 0 0 510.005 510.005" viewBox="0 0 510.005 510.005" xmlns="http://www.w3.org/2000/svg"><g><g><g><g><circle cx="234.003" cy="226" fill="#fd7da0" r="174"/><path d="m207.541 226c0-69.724 41.016-129.859 100.231-157.62-22.398-10.502-47.395-16.38-73.769-16.38-96.098 0-174 77.903-174 174 0 96.098 77.902 174 174 174 26.374 0 51.37-5.879 73.769-16.38-59.215-27.762-100.231-87.896-100.231-157.62z" fill="#db4b86"/><circle cx="234.003" cy="226" fill="#fff" r="109.131"/><path d="m245.54 117.475c-3.792-.398-7.64-.607-11.537-.607-60.271 0-109.131 48.86-109.131 109.131s48.86 109.131 109.131 109.131c3.897 0 7.745-.208 11.537-.607-23.778-29.752-38-67.475-38-108.524s14.222-78.771 38-108.524z" fill="#d2dcfd"/><circle cx="234.003" cy="226" fill="#fd7da0" r="44.262"/><path d="m386.003 500.005h-304c-12.15 0-22-9.85-22-22 0-12.15 9.85-22 22-22h304c12.15 0 22 9.85 22 22 0 12.15-9.849 22-22 22z" fill="#fdcb50"/><g fill="#67ccd1"><path d="m386.834 73.168h63.168l-54.436 54.436h-63.168z"/><path d="m386.834 73.168v-63.168l-54.436 54.436v63.168z"/></g></g></g></g><path d="m402.637 134.675 54.436-54.436c2.859-2.86 3.715-7.161 2.168-10.898-1.548-3.737-5.194-6.173-9.239-6.173h-53.168v-53.168c0-4.044-2.437-7.691-6.173-9.239-3.738-1.548-8.039-.691-10.898 2.167l-54.436 54.436c-1.875 1.875-2.929 4.419-2.929 7.071v.153c-26.987-14.821-57.204-22.588-88.395-22.588-101.458 0-184 82.542-184 184 0 68.868 38.038 129.009 94.201 160.547l-25.885 59.458h-36.316c-17.645 0-32 14.355-32 32s14.355 32 32 32h304c17.645 0 32-14.355 32-32s-14.355-32-32-32h-36.316l-25.885-59.458c56.163-31.538 94.201-91.679 94.201-160.547 0-31.173-7.765-61.405-22.585-88.396h.148c2.652 0 5.195-1.054 7.071-2.929zm-11.214-17.071h-34.881l34.436-34.436h34.881zm-67.171 118.396h8.38c-4.699 46.693-41.936 83.931-88.629 88.629v-8.38c0-5.523-4.478-10-10-10s-10 4.477-10 10v8.38c-46.693-4.699-83.93-41.936-88.629-88.629h8.379c5.522 0 10-4.477 10-10s-4.478-10-10-10h-8.379c4.699-46.693 41.936-83.93 88.629-88.629v8.379c0 5.523 4.478 10 10 10s10-4.477 10-10v-8.379c19.844 1.997 37.978 9.873 52.635 21.852l-64.352 64.353c-3.905 3.905-3.905 10.237 0 14.143 1.953 1.953 4.512 2.929 7.071 2.929s5.118-.976 7.071-2.929l64.352-64.353c11.979 14.657 19.855 32.79 21.852 52.634h-8.38c-5.522 0-10 4.477-10 10s4.478 10 10 10zm52.581-201.858v34.883l-34.436 34.436v-34.883zm21.17 443.863c0 6.617-5.383 12-12 12h-304c-6.617 0-12-5.383-12-12s5.383-12 12-12h304c6.618 0 12 5.383 12 12zm-70.129-32h-187.741l22.034-50.612c22.082 9.4 46.362 14.607 71.836 14.607s49.754-5.207 71.836-14.607zm70.129-220.005c0 90.43-73.57 164-164 164s-164-73.57-164-164 73.57-164 164-164c31.572 0 62.018 8.923 88.395 25.843v35.62l-11.567 11.568c-18.367-15.536-41.48-25.621-66.827-27.738v-9.306c0-5.523-4.478-10-10-10s-10 4.477-10 10v9.306c-57.73 4.82-103.887 50.978-108.708 108.707h-9.306c-5.522 0-10 4.477-10 10s4.478 10 10 10h9.306c4.821 57.729 50.978 103.887 108.707 108.708v9.305c0 5.523 4.478 10 10 10s10-4.477 10-10v-9.305c57.729-4.822 103.887-50.979 108.708-108.708h9.305c5.522 0 10-4.477 10-10s-4.478-10-10-10h-9.305c-2.117-25.346-12.202-48.46-27.738-66.827l11.569-11.569h35.617c16.919 26.377 25.844 56.841 25.844 88.396z" fill="#052a75"/></g><g/><g/><g/><g/><g/><g/><g/><g/><g/><g/><g/><g/><g/><g/><g/></svg>