<svg width="48" height="48" viewBox="0 0 48 48" fill="none" xmlns="http://www.w3.org/2000/svg">
    <path d="M33 20C35.2091 20 37 18.2091 37 16C37 13.7909 35.2091 12 33 12C30.7909 12 29 13.7909 29 16C29 18.2091 30.7909 20 33 20Z" stroke="#4F46E5" stroke-width="2" stroke-linecap="round" stroke-linejoin="round"/>
    <path d="M15 20C17.2091 20 19 18.2091 19 16C19 13.7909 17.2091 12 15 12C12.7909 12 11 13.7909 11 16C11 18.2091 12.7909 20 15 20Z" stroke="#4F46E5" stroke-width="2" stroke-linecap="round" stroke-linejoin="round"/>
    <path d="M24 36C26.2091 36 28 34.2091 28 32C28 29.7909 26.2091 28 24 28C21.7909 28 20 29.7909 20 32C20 34.2091 21.7909 36 24 36Z" stroke="#4F46E5" stroke-width="2" stroke-linecap="round" stroke-linejoin="round"/>
    <path d="M20.5898 29.5098L17.4198 22.4998" stroke="#4F46E5" stroke-width="2" stroke-linecap="round" stroke-linejoin="round"/>
    <path d="M30.5801 22.4998L27.4101 29.5098" stroke="#4F46E5" stroke-width="2" stroke-linecap="round" stroke-linejoin="round"/>
</svg>